# xmcd
#
# Track frame offsets:
#  150
#  13956
#  31269
#  44763
#  60702
#  79757
#
# Disc length: 1249 seconds
#
# Revision: 0
# Processed by: cddbd v1.5.1PL2 Copyright (c) Steve Scherf et al.
# Submitted via: Collectorz.com_Music_Collector 6.11
#
DISCID=4b04df06
DTITLE=Alighting - Alighting
DYEAR=2006
DGENRE=
TTITLE0=There's No Heaven
TTITLE1=Here Comes The One
TTITLE2=Baby Lie
TTITLE3=Maybe It's The End
TTITLE4=New Beautiful Day
TTITLE5=Crashing Cars
EXTD=
EXTT0=
EXTT1=
EXTT2=
EXTT3=
EXTT4=
EXTT5=
PLAYORDER=
